<svg xmlns="http://www.w3.org/2000/svg" width="198.002" height="207.999" viewBox="0 0 198.002 207.999">
  <path id="排除_1" data-name="排除 1" d="M-7859-11846.5a93.826,93.826,0,0,1-38.341-8.133,97.167,97.167,0,0,1-16.731-9.543,100.47,100.47,0,0,1-14.578-12.638,103.3,103.3,0,0,1-12.028-15.317,105.272,105.272,0,0,1-9.082-17.581A107.378,107.378,0,0,1-7957.5-11950a107.378,107.378,0,0,1,7.741-40.286,105.322,105.322,0,0,1,9.082-17.582,103.344,103.344,0,0,1,12.028-15.318,100.351,100.351,0,0,1,14.578-12.638,97.12,97.12,0,0,1,16.731-9.543A93.806,93.806,0,0,1-7859-12053.5a93.8,93.8,0,0,1,38.34,8.134,97.12,97.12,0,0,1,16.731,9.543,100.462,100.462,0,0,1,14.579,12.638,103.383,103.383,0,0,1,12.028,15.318,105.322,105.322,0,0,1,9.082,17.582A107.378,107.378,0,0,1-7760.5-11950a107.378,107.378,0,0,1-7.741,40.286,105.272,105.272,0,0,1-9.082,17.581,103.416,103.416,0,0,1-12.028,15.317,100.462,100.462,0,0,1-14.579,12.638,97.167,97.167,0,0,1-16.731,9.543A93.825,93.825,0,0,1-7859-11846.5Zm-41.5-160.5a28.531,28.531,0,0,0-28.5,28.5,28.352,28.352,0,0,0,18.063,26.529,123.314,123.314,0,0,1,15.97,21.085,97.589,97.589,0,0,1,7.035,14.405c-.044.636-.066,1.3-.066,1.981a28.533,28.533,0,0,0,28.5,28.5,28.583,28.583,0,0,0,25.952-16.705c.021.151.03.23.03.23.008-.052.018-.1.027-.158.021-.114.043-.232.066-.351a28.327,28.327,0,0,0,2.417-10.956c3.814-14.769,9.5-27.687,16.889-38.4A28.338,28.338,0,0,0-7790-11980.5a28.533,28.533,0,0,0-28.5-28.5,28.531,28.531,0,0,0-28.5,28.5,28.509,28.509,0,0,0,3.633,13.936l-.006.012,0,.007c-.118.242-.236.484-.357.729a225.816,225.816,0,0,1-12.771,22.973,28.991,28.991,0,0,0-3-.154,28.9,28.9,0,0,0-5.221.475,228.27,228.27,0,0,1-12.109-20.1A28.369,28.369,0,0,0-7872-11978.5,28.531,28.531,0,0,0-7900.5-12007Z" transform="translate(7958.001 12054)" fill="#fff" stroke="#707070" stroke-width="1"/>
</svg>
