<svg width="489" height="185" viewBox="0 0 489 185" fill="none" xmlns="http://www.w3.org/2000/svg">
<g filter="url(#filter0_d_24_16)">
<path d="M196.88 156.68C194.747 156.68 192.933 156.267 191.44 155.44C189.973 154.613 188.853 153.493 188.08 152.08C187.307 150.667 186.92 149.12 186.92 147.44H189.84C189.84 149.467 190.467 151.08 191.72 152.28C192.973 153.453 194.693 154.04 196.88 154.04C198.293 154.04 199.52 153.773 200.56 153.24C201.627 152.707 202.44 151.947 203 150.96C203.587 149.973 203.88 148.827 203.88 147.52C203.88 145.52 203.253 143.907 202 142.68C200.747 141.453 199.053 140.84 196.92 140.84C196.067 140.84 195.333 140.947 194.72 141.16C194.107 141.347 193.56 141.587 193.08 141.88L191.44 139.08L203.08 130.04L202.76 129.4H188.08V126.8H205.56V131.12L195.24 139.16L193.28 139.2C193.76 138.987 194.307 138.813 194.92 138.68C195.533 138.52 196.24 138.44 197.04 138.44C199.093 138.44 200.84 138.84 202.28 139.64C203.747 140.44 204.867 141.507 205.64 142.84C206.413 144.173 206.8 145.64 206.8 147.24V147.8C206.8 149.347 206.413 150.8 205.64 152.16C204.867 153.52 203.747 154.613 202.28 155.44C200.813 156.267 199.013 156.68 196.88 156.68ZM212.655 156V152.04H216.415V156H212.655ZM220.968 156L228.808 144.84V145.64L221.448 134.84H224.728L230.328 143.16H230.888L236.208 134.84H239.288L232.368 145.32V144.56L240.608 156H237.328L230.848 147H230.328L224.048 156H220.968Z" fill="white"/>
</g>
<g filter="url(#filter1_d_24_16)">
<path d="M198.606 116L177.869 51.03H190.952L208.129 107.278L204.391 105.498H214.003L210.176 107.278L226.018 51.03H238.656L219.432 116H198.606ZM275.724 117.691C269.672 117.691 264.569 116.534 260.416 114.22C256.262 111.906 253.088 108.672 250.893 104.519C248.757 100.306 247.689 95.3817 247.689 89.745V51.03H260.327V90.457C260.327 93.5423 260.92 96.2717 262.107 98.645C263.293 100.959 265.014 102.769 267.269 104.074C269.583 105.32 272.401 105.943 275.724 105.943C278.987 105.943 281.746 105.32 284.001 104.074C286.315 102.769 288.035 100.959 289.163 98.645C290.349 96.331 290.943 93.6017 290.943 90.457V51.03H303.581V89.745C303.581 95.3817 302.513 100.306 300.377 104.519C298.3 108.672 295.185 111.906 291.032 114.22C286.878 116.534 281.776 117.691 275.724 117.691ZM318.557 116V51.03H331.195V116H318.557ZM347.408 116V51.03H360.046V116H347.408ZM358.266 116V104.875H386.301V116H358.266ZM397.937 116V67.673H410.308V116H397.937ZM391.173 76.929V67.673H410.308V76.929H391.173ZM402.476 61.888C400.043 61.888 398.233 61.265 397.047 60.019C395.919 58.7137 395.356 57.1117 395.356 55.213C395.356 53.1957 395.919 51.564 397.047 50.318C398.233 49.072 400.043 48.449 402.476 48.449C404.908 48.449 406.688 49.072 407.816 50.318C408.943 51.564 409.507 53.1957 409.507 55.213C409.507 57.1117 408.943 58.7137 407.816 60.019C406.688 61.265 404.908 61.888 402.476 61.888ZM452.956 117.602C448.981 117.602 445.48 116.771 442.454 115.11C439.428 113.389 437.055 110.897 435.334 107.634C433.614 104.371 432.664 100.425 432.486 95.797H434.355V116H424.565V51.03H436.936V83.515L433.643 88.588C433.881 83.604 434.86 79.4507 436.58 76.128C438.36 72.8053 440.734 70.3133 443.7 68.652C446.667 66.9907 450.019 66.16 453.757 66.16C457.08 66.16 460.106 66.783 462.835 68.029C465.565 69.275 467.908 71.0253 469.866 73.28C471.824 75.4753 473.308 78.0563 474.316 81.023C475.384 83.9897 475.918 87.2233 475.918 90.724V92.593C475.918 96.0937 475.384 99.357 474.316 102.383C473.248 105.409 471.706 108.079 469.688 110.393C467.671 112.648 465.238 114.428 462.39 115.733C459.602 116.979 456.457 117.602 452.956 117.602ZM450.197 107.189C452.867 107.189 455.181 106.536 457.139 105.231C459.157 103.866 460.729 102.027 461.856 99.713C462.984 97.399 463.547 94.729 463.547 91.703C463.547 88.6177 462.984 85.9477 461.856 83.693C460.729 81.4383 459.157 79.688 457.139 78.442C455.181 77.196 452.867 76.573 450.197 76.573C447.765 76.573 445.51 77.107 443.433 78.175C441.416 79.243 439.755 80.8153 438.449 82.892C437.203 84.9687 436.58 87.4607 436.58 90.368V93.928C436.58 96.7167 437.233 99.09 438.538 101.048C439.844 103.006 441.535 104.519 443.611 105.587C445.688 106.655 447.883 107.189 450.197 107.189Z" fill="white"/>
</g>
<g filter="url(#filter2_d_24_16)">
<mask id="mask0_24_16" style="mask-type:alpha" maskUnits="userSpaceOnUse" x="24" y="40" width="119" height="119">
<ellipse cx="83.2137" cy="99.3416" rx="60" ry="57.707" transform="rotate(42.256 83.2137 99.3416)" fill="#F1F1F1"/>
</mask>
<g mask="url(#mask0_24_16)">
<rect x="121.118" y="54.7793" width="94.0127" height="118.471" transform="rotate(42.256 121.118 54.7793)" fill="#F1F1F1"/>
</g>
<mask id="mask1_24_16" style="mask-type:alpha" maskUnits="userSpaceOnUse" x="41" y="26" width="119" height="118">
<ellipse cx="100.228" cy="85.0757" rx="60" ry="57.707" transform="rotate(-137.744 100.228 85.0757)" fill="black"/>
</mask>
<g mask="url(#mask1_24_16)">
<rect x="62.3235" y="129.638" width="94.0127" height="118.471" transform="rotate(-137.744 62.3235 129.638)" fill="#282828"/>
</g>
</g>
<defs>
<filter id="filter0_d_24_16" x="174.42" y="114.3" width="78.6875" height="54.88" filterUnits="userSpaceOnUse" color-interpolation-filters="sRGB">
<feFlood flood-opacity="0" result="BackgroundImageFix"/>
<feColorMatrix in="SourceAlpha" type="matrix" values="0 0 0 0 0 0 0 0 0 0 0 0 0 0 0 0 0 0 127 0" result="hardAlpha"/>
<feOffset/>
<feGaussianBlur stdDeviation="6.25"/>
<feComposite in2="hardAlpha" operator="out"/>
<feColorMatrix type="matrix" values="0 0 0 0 0 0 0 0 0 0 0 0 0 0 0 0 0 0 0.28 0"/>
<feBlend mode="normal" in2="BackgroundImageFix" result="effect1_dropShadow_24_16"/>
<feBlend mode="normal" in="SourceGraphic" in2="effect1_dropShadow_24_16" result="shape"/>
</filter>
<filter id="filter1_d_24_16" x="165.369" y="35.949" width="323.049" height="94.242" filterUnits="userSpaceOnUse" color-interpolation-filters="sRGB">
<feFlood flood-opacity="0" result="BackgroundImageFix"/>
<feColorMatrix in="SourceAlpha" type="matrix" values="0 0 0 0 0 0 0 0 0 0 0 0 0 0 0 0 0 0 127 0" result="hardAlpha"/>
<feOffset/>
<feGaussianBlur stdDeviation="6.25"/>
<feComposite in2="hardAlpha" operator="out"/>
<feColorMatrix type="matrix" values="0 0 0 0 0 0 0 0 0 0 0 0 0 0 0 0 0 0 0.28 0"/>
<feBlend mode="normal" in2="BackgroundImageFix" result="effect1_dropShadow_24_16"/>
<feBlend mode="normal" in="SourceGraphic" in2="effect1_dropShadow_24_16" result="shape"/>
</filter>
<filter id="filter2_d_24_16" x="23.9529" y="9.02061" width="135.536" height="166.376" filterUnits="userSpaceOnUse" color-interpolation-filters="sRGB">
<feFlood flood-opacity="0" result="BackgroundImageFix"/>
<feColorMatrix in="SourceAlpha" type="matrix" values="0 0 0 0 0 0 0 0 0 0 0 0 0 0 0 0 0 0 127 0" result="hardAlpha"/>
<feOffset/>
<feGaussianBlur stdDeviation="8.65"/>
<feComposite in2="hardAlpha" operator="out"/>
<feColorMatrix type="matrix" values="0 0 0 0 0 0 0 0 0 0 0 0 0 0 0 0 0 0 0.25 0"/>
<feBlend mode="normal" in2="BackgroundImageFix" result="effect1_dropShadow_24_16"/>
<feBlend mode="normal" in="SourceGraphic" in2="effect1_dropShadow_24_16" result="shape"/>
</filter>
</defs>
</svg>
