<svg width="76" height="34" viewBox="0 0 76 34" fill="none" xmlns="http://www.w3.org/2000/svg">
<g filter="url(#filter0_d_1_2)">
<path d="M42.0454 22.8032H43.8935C43.7592 22.131 43.6905 21.4915 43.6905 20.7208V17.507C43.6905 15.3426 42.3987 14.2768 40.0811 14.2768C37.9817 14.2768 36.5542 15.3262 36.3694 17.1135H38.4352C38.5024 16.3429 39.0734 15.8345 40.0139 15.8345C40.988 15.8345 41.6262 16.3264 41.6262 17.3431V17.7366L39.0734 18.0153C37.3436 18.2121 36 18.9007 36 20.5732C36 22.0818 37.2092 22.9836 38.8719 22.9836C40.2322 22.9836 41.3797 22.4425 41.8553 21.4915C41.8761 22.0612 42.0454 22.8032 42.0454 22.8032ZM39.4597 21.5243C38.6032 21.5243 38.1329 21.1143 38.1329 20.4585C38.1329 19.5895 38.8215 19.3927 39.7284 19.2779L41.6262 19.0648V19.573C41.6262 20.8848 40.5682 21.5243 39.4597 21.5243ZM51.0089 22.8032H53.1251V11H50.9753V15.8345C50.5723 14.9983 49.5982 14.2768 48.2715 14.2768C45.9652 14.2768 44.3644 16.0641 44.3644 18.6384C44.3644 21.2291 45.9652 23 48.2715 23C49.5646 23 50.5891 22.3113 51.0089 21.4751V22.8032ZM51.0258 18.786C51.0258 20.4093 50.2364 21.4587 48.876 21.4587C47.4821 21.4587 46.6034 20.3601 46.6034 18.6384C46.6034 16.9332 47.4821 15.8181 48.876 15.8181C50.2364 15.8181 51.0258 16.8676 51.0258 18.4908V18.786ZM54.3805 13.0635H56.6645V11.0139H54.3805V13.0635ZM54.4476 22.8032H56.5974V14.4736H54.4476V22.8032ZM59.2822 22.8032L61.4151 19.9502L63.5312 22.8032H66L62.6914 18.4416L65.7313 14.4736H63.4304L61.5326 17.0479L59.6516 14.4736H57.1828L60.2562 18.54L56.9813 22.8032H59.2822Z" fill="white"/>
<path fill-rule="evenodd" clip-rule="evenodd" d="M28.1263 23V18.8865H30.9623L33.6284 23H36L33.0722 18.5784C34.3971 18.1779 35.5583 17.1611 35.5583 15.451C35.5583 13.2017 33.8824 12 31.078 12H26V23H28.1263ZM28.1263 13.6176V17.2843H30.9786C32.5979 17.2843 33.4157 16.6527 33.4157 15.451C33.4157 14.2493 32.5249 13.6176 30.8326 13.6176H28.1263Z" fill="white"/>
<path d="M15 25C12.2386 25 10 22.7615 10 20C10 17.2385 12.2386 15 15 15V25Z" fill="white"/>
<path d="M15 9H10V14H15V9Z" fill="white"/>
<path d="M18.5 14C19.8807 14 21 12.8807 21 11.5C21 10.1193 19.8807 9 18.5 9C17.1193 9 16 10.1193 16 11.5C16 12.8807 17.1193 14 18.5 14Z" fill="white"/>
</g>
<defs>
<filter id="filter0_d_1_2" x="-8.3" y="-3.3" width="92.6" height="40.6" filterUnits="userSpaceOnUse" color-interpolation-filters="sRGB">
<feFlood flood-opacity="0" result="BackgroundImageFix"/>
<feColorMatrix in="SourceAlpha" type="matrix" values="0 0 0 0 0 0 0 0 0 0 0 0 0 0 0 0 0 0 127 0" result="hardAlpha"/>
<feOffset/>
<feGaussianBlur stdDeviation="4.15"/>
<feComposite in2="hardAlpha" operator="out"/>
<feColorMatrix type="matrix" values="0 0 0 0 0 0 0 0 0 0 0 0 0 0 0 0 0 0 0.57 0"/>
<feBlend mode="normal" in2="BackgroundImageFix" result="effect1_dropShadow_1_2"/>
<feBlend mode="normal" in="SourceGraphic" in2="effect1_dropShadow_1_2" result="shape"/>
</filter>
</defs>
</svg>
